<svg width="187" height="154" viewBox="0 0 187 154" fill="none" xmlns="http://www.w3.org/2000/svg">
<path d="M99.0416 4.33984L32.4219 117.687L50.9946 125.406L99.0416 42.1223L148.3 129.469L181.004 148.157L99.0416 4.33984Z" fill="white" stroke="white" stroke-width="4"/>
<path d="M31.1766 117.515C26.6113 120.783 19.9707 128.954 2.95435 149.383C12.0851 150.609 41.1375 139.986 43.2126 138.352L169.798 50.5088C125.943 72.1631 35.0864 114.715 31.1766 117.515Z" fill="url(#paint0_linear_49_2)" stroke="black" stroke-width="3"/>
<path d="M160.859 62.747L154.602 51.4303C161.342 49.2758 172.942 43.9986 174.957 47.6059C176.756 50.8284 166.343 58.5696 160.859 62.747Z" fill="#9200BE" stroke="black" stroke-width="1.5"/>
<path d="M153.843 62.9303C154.221 62.0536 157.591 60.2459 158.464 58.394L160.557 61.7702C162.162 63.4846 160.01 68.6456 158.112 70.8045C156.296 68.8035 153.364 64.0391 153.843 62.9303Z" fill="#9200BE" stroke="black" stroke-width="1.5"/>
<path d="M149.277 57.2101C149.277 57.2101 155.08 55.8018 157.163 55.9843L155.025 51.9742C154.296 49.7518 148.822 49.7276 145.957 50.2643C146.836 52.8098 149.277 57.2101 149.277 57.2101Z" fill="#9200BE" stroke="black" stroke-width="1.5"/>
<path d="M168.099 49.374H168.177C169.255 49.3742 170.128 50.2477 170.128 51.3252C170.128 52.4028 169.255 53.2772 168.177 53.2773H168.099C167.021 53.2772 166.148 52.4029 166.148 51.3252C166.148 50.2477 167.021 49.3742 168.099 49.374Z" fill="black" stroke="black"/>
<defs>
<linearGradient id="paint0_linear_49_2" x1="67.0772" y1="50.5088" x2="67.0772" y2="167.36" gradientUnits="userSpaceOnUse">
<stop stop-color="#9200BE"/>
<stop offset="0.870192" stop-color="#FF5500"/>
</linearGradient>
</defs>
</svg>
