<svg width="469" height="120" viewBox="0 0 469 120" fill="none" xmlns="http://www.w3.org/2000/svg">
<path d="M73.488 5.66016L24.8745 90.4725L38.4274 96.2483L73.488 33.931L109.433 99.2882L133.297 113.272L73.488 5.66016Z" fill="white" stroke="white" stroke-width="4"/>
<path d="M23.9659 90.3427C20.6344 92.7884 15.7887 98.9027 3.37158 114.188C10.0344 115.106 31.2344 107.157 32.7487 105.934L125.12 40.2056C93.1182 56.4084 26.8189 88.2482 23.9659 90.3427Z" fill="url(#paint0_linear_50_14)" stroke="black" stroke-width="3"/>
<path d="M118.598 49.3631L114.032 40.8954C118.95 39.2833 127.415 35.3347 128.885 38.0338C130.198 40.445 122.6 46.2374 118.598 49.3631Z" fill="#9200BE" stroke="black" stroke-width="1.5"/>
<path d="M113.478 49.5003C113.754 48.8444 116.213 47.4917 116.85 46.1061L118.377 48.6323C119.548 49.9151 117.978 53.7769 116.593 55.3922C115.268 53.895 113.129 50.33 113.478 49.5003Z" fill="#9200BE" stroke="black" stroke-width="1.5"/>
<path d="M110.146 45.2203C110.146 45.2203 114.381 44.1665 115.9 44.303L114.341 41.3025C113.809 39.6396 109.814 39.6214 107.723 40.0231C108.365 41.9277 110.146 45.2203 110.146 45.2203Z" fill="#9200BE" stroke="black" stroke-width="1.5"/>
<path d="M123.909 39.4829C124.63 39.483 125.226 40.0836 125.226 40.8169C125.226 41.5504 124.63 42.1517 123.909 42.1519C123.187 42.1519 122.591 41.5505 122.591 40.8169C122.591 40.0835 123.187 39.4829 123.909 39.4829Z" fill="black" stroke="black"/>
<path d="M150.192 96.96C144.88 96.96 140.208 96.128 136.176 94.464C132.144 92.8 129.008 90.656 126.768 88.032L137.232 79.008C139.28 80.864 141.584 82.24 144.144 83.136C146.768 84.032 149.072 84.48 151.056 84.48C151.76 84.48 152.4 84.416 152.976 84.288C153.552 84.16 154 83.968 154.32 83.712C154.704 83.392 154.992 83.072 155.184 82.752C155.44 82.368 155.568 81.952 155.568 81.504C155.568 80.416 155.024 79.584 153.936 79.008C153.36 78.752 152.4 78.432 151.056 78.048C149.776 77.6 148.048 77.12 145.872 76.608C143.184 75.904 140.784 75.072 138.672 74.112C136.56 73.088 134.768 71.904 133.296 70.56C131.888 69.216 130.768 67.68 129.936 65.952C129.168 64.16 128.784 62.208 128.784 60.096C128.784 57.536 129.36 55.264 130.512 53.28C131.664 51.296 133.264 49.6 135.312 48.192C137.36 46.72 139.664 45.632 142.224 44.928C144.784 44.16 147.408 43.776 150.096 43.776C153.104 43.776 155.92 44.096 158.544 44.736C161.232 45.312 163.728 46.176 166.032 47.328C168.4 48.416 170.512 49.76 172.368 51.36L163.152 61.536C162.064 60.576 160.784 59.68 159.312 58.848C157.904 58.016 156.432 57.344 154.896 56.832C153.36 56.256 151.92 55.968 150.576 55.968C149.744 55.968 149.04 56.032 148.464 56.16C147.888 56.288 147.408 56.48 147.024 56.736C146.64 56.992 146.352 57.312 146.16 57.696C145.968 58.08 145.872 58.496 145.872 58.944C145.872 59.52 146.032 60.064 146.352 60.576C146.672 61.088 147.184 61.504 147.888 61.824C148.464 62.144 149.424 62.56 150.768 63.072C152.176 63.52 154.192 64.096 156.816 64.8C159.76 65.632 162.32 66.592 164.496 67.68C166.672 68.768 168.432 70.016 169.776 71.424C170.736 72.512 171.472 73.728 171.984 75.072C172.496 76.352 172.752 77.792 172.752 79.392C172.752 82.784 171.76 85.824 169.776 88.512C167.856 91.136 165.2 93.216 161.808 94.752C158.416 96.224 154.544 96.96 150.192 96.96ZM184.268 96V31.872H202.124V96H184.268ZM175.82 60V44.832H211.052V60H175.82ZM219.814 96V44.832H236.518L237.478 61.632L233.734 58.752C234.566 55.936 235.846 53.408 237.574 51.168C239.366 48.864 241.51 47.072 244.006 45.792C246.502 44.448 249.126 43.776 251.878 43.776C253.03 43.776 254.118 43.872 255.142 44.064C256.166 44.192 257.126 44.384 258.022 44.64L253.126 64.416C252.422 63.968 251.43 63.584 250.15 63.264C248.87 62.88 247.494 62.688 246.022 62.688C244.742 62.688 243.59 62.912 242.566 63.36C241.542 63.744 240.678 64.32 239.974 65.088C239.27 65.856 238.726 66.784 238.342 67.872C237.958 68.896 237.766 70.112 237.766 71.52V96H219.814ZM288.173 96.96C282.733 96.96 277.869 95.808 273.581 93.504C269.293 91.2 265.933 88.064 263.501 84.096C261.069 80.128 259.853 75.552 259.853 70.368C259.853 65.184 261.069 60.608 263.501 56.64C265.933 52.672 269.293 49.536 273.581 47.232C277.869 44.928 282.733 43.776 288.173 43.776C293.613 43.776 298.445 44.928 302.669 47.232C306.957 49.536 310.317 52.672 312.749 56.64C315.181 60.608 316.397 65.184 316.397 70.368C316.397 75.552 315.181 80.128 312.749 84.096C310.317 88.064 306.957 91.2 302.669 93.504C298.445 95.808 293.613 96.96 288.173 96.96ZM288.173 81.888C290.093 81.888 291.821 81.408 293.357 80.448C294.957 79.424 296.173 78.048 297.005 76.32C297.901 74.528 298.349 72.544 298.349 70.368C298.349 68.064 297.901 66.048 297.005 64.32C296.173 62.592 294.957 61.248 293.357 60.288C291.821 59.264 290.093 58.752 288.173 58.752C286.189 58.752 284.429 59.264 282.893 60.288C281.357 61.248 280.141 62.624 279.245 64.416C278.349 66.144 277.901 68.128 277.901 70.368C277.901 72.544 278.349 74.528 279.245 76.32C280.141 78.048 281.357 79.424 282.893 80.448C284.429 81.408 286.189 81.888 288.173 81.888Z" fill="white"/>
<path d="M329.819 118.08L342.107 89.088L342.299 96.96L318.011 44.832H337.979L346.523 65.184C347.227 66.784 347.835 68.384 348.347 69.984C348.923 71.52 349.339 72.992 349.595 74.4L347.579 75.936C347.835 75.104 348.219 73.952 348.731 72.48C349.243 71.008 349.819 69.312 350.459 67.392L358.235 44.832H378.299L356.123 96L347.195 118.08H329.819ZM403.061 96.864C398.837 96.864 395.029 95.744 391.637 93.504C388.309 91.2 385.653 88.064 383.669 84.096C381.749 80.064 380.789 75.488 380.789 70.368C380.789 65.12 381.749 60.512 383.669 56.544C385.589 52.576 388.245 49.472 391.637 47.232C395.029 44.928 398.933 43.776 403.349 43.776C405.717 43.776 407.893 44.096 409.877 44.736C411.861 45.376 413.589 46.304 415.061 47.52C416.533 48.736 417.813 50.112 418.901 51.648C419.989 53.184 420.885 54.848 421.589 56.64L417.941 56.448V44.832H435.509V96H417.557V83.52L421.493 83.712C420.917 85.568 420.053 87.296 418.901 88.896C417.813 90.496 416.469 91.904 414.869 93.12C413.269 94.272 411.477 95.2 409.493 95.904C407.573 96.544 405.429 96.864 403.061 96.864ZM408.149 82.176C410.197 82.176 411.957 81.728 413.429 80.832C414.901 79.872 416.021 78.496 416.789 76.704C417.621 74.912 418.037 72.8 418.037 70.368C418.037 67.872 417.621 65.728 416.789 63.936C416.021 62.144 414.901 60.8 413.429 59.904C411.957 58.944 410.197 58.464 408.149 58.464C406.101 58.464 404.341 58.944 402.869 59.904C401.461 60.8 400.373 62.144 399.605 63.936C398.837 65.728 398.453 67.872 398.453 70.368C398.453 72.8 398.837 74.912 399.605 76.704C400.373 78.496 401.461 79.872 402.869 80.832C404.341 81.728 406.101 82.176 408.149 82.176ZM455.179 97.056C452.299 97.056 450.059 96.256 448.459 94.656C446.923 93.056 446.155 90.784 446.155 87.84C446.155 85.152 446.987 82.944 448.651 81.216C450.315 79.488 452.491 78.624 455.179 78.624C457.995 78.624 460.203 79.424 461.803 81.024C463.403 82.624 464.203 84.896 464.203 87.84C464.203 90.528 463.371 92.736 461.707 94.464C460.043 96.192 457.867 97.056 455.179 97.056Z" fill="url(#paint1_linear_50_14)"/>
<defs>
<linearGradient id="paint0_linear_50_14" x1="50.1631" y1="40.2056" x2="50.1631" y2="127.64" gradientUnits="userSpaceOnUse">
<stop stop-color="#9200BE"/>
<stop offset="0.870192" stop-color="#FF5500"/>
</linearGradient>
<linearGradient id="paint1_linear_50_14" x1="126" y1="60" x2="469" y2="60" gradientUnits="userSpaceOnUse">
<stop offset="0.572115" stop-color="#FF5500"/>
<stop offset="1" stop-color="#9200BE"/>
</linearGradient>
</defs>
</svg>
