<svg width="469" height="120" viewBox="0 0 469 120" fill="none" xmlns="http://www.w3.org/2000/svg">
<path d="M73.1164 5.66016L24.5029 90.4725L38.0558 96.2483L73.1164 33.931L109.061 99.2882L132.926 113.272L73.1164 5.66016Z" fill="white" stroke="white" stroke-width="4"/>
<path d="M23.5943 90.3427C20.2629 92.7884 15.4171 98.9027 3 114.188C9.66286 115.106 30.8629 107.157 32.3771 105.934L124.749 40.2056C92.7467 56.4084 26.4473 88.2482 23.5943 90.3427Z" fill="url(#paint0_linear_50_14)" stroke="black" stroke-width="3"/>
<path d="M118.226 49.3631L113.661 40.8954C118.578 39.2833 127.044 35.3347 128.514 38.0338C129.827 40.445 122.228 46.2374 118.226 49.3631Z" fill="#9200BE" stroke="black" stroke-width="1.5"/>
<path d="M113.106 49.5002C113.382 48.8443 115.842 47.4916 116.479 46.1059L118.006 48.6322C119.177 49.915 117.607 53.7767 116.221 55.3921C114.896 53.8948 112.757 50.3299 113.106 49.5002Z" fill="#9200BE" stroke="black" stroke-width="1.5"/>
<path d="M109.775 45.2204C109.775 45.2204 114.009 44.1666 115.529 44.3032L113.969 41.3026C113.437 39.6397 109.443 39.6216 107.352 40.0232C107.993 41.9278 109.775 45.2204 109.775 45.2204Z" fill="#9200BE" stroke="black" stroke-width="1.5"/>
<path d="M123.537 39.4829C124.258 39.483 124.854 40.0836 124.854 40.8169C124.854 41.5504 124.258 42.1517 123.537 42.1519C122.816 42.1519 122.22 41.5505 122.22 40.8169C122.22 40.0835 122.816 39.4829 123.537 39.4829Z" fill="black" stroke="black"/>
<path d="M149.82 96.96C144.508 96.96 139.836 96.128 135.804 94.464C131.772 92.8 128.636 90.656 126.396 88.032L136.86 79.008C138.908 80.864 141.212 82.24 143.772 83.136C146.396 84.032 148.7 84.48 150.684 84.48C151.388 84.48 152.028 84.416 152.604 84.288C153.18 84.16 153.628 83.968 153.948 83.712C154.332 83.392 154.62 83.072 154.812 82.752C155.068 82.368 155.196 81.952 155.196 81.504C155.196 80.416 154.652 79.584 153.564 79.008C152.988 78.752 152.028 78.432 150.684 78.048C149.404 77.6 147.676 77.12 145.5 76.608C142.812 75.904 140.412 75.072 138.3 74.112C136.188 73.088 134.396 71.904 132.924 70.56C131.516 69.216 130.396 67.68 129.564 65.952C128.796 64.16 128.412 62.208 128.412 60.096C128.412 57.536 128.988 55.264 130.14 53.28C131.292 51.296 132.892 49.6 134.94 48.192C136.988 46.72 139.292 45.632 141.852 44.928C144.412 44.16 147.036 43.776 149.724 43.776C152.732 43.776 155.548 44.096 158.172 44.736C160.86 45.312 163.356 46.176 165.66 47.328C168.028 48.416 170.14 49.76 171.996 51.36L162.78 61.536C161.692 60.576 160.412 59.68 158.94 58.848C157.532 58.016 156.06 57.344 154.524 56.832C152.988 56.256 151.548 55.968 150.204 55.968C149.372 55.968 148.668 56.032 148.092 56.16C147.516 56.288 147.036 56.48 146.652 56.736C146.268 56.992 145.98 57.312 145.788 57.696C145.596 58.08 145.5 58.496 145.5 58.944C145.5 59.52 145.66 60.064 145.98 60.576C146.3 61.088 146.812 61.504 147.516 61.824C148.092 62.144 149.052 62.56 150.396 63.072C151.804 63.52 153.82 64.096 156.444 64.8C159.388 65.632 161.948 66.592 164.124 67.68C166.3 68.768 168.06 70.016 169.404 71.424C170.364 72.512 171.1 73.728 171.612 75.072C172.124 76.352 172.38 77.792 172.38 79.392C172.38 82.784 171.388 85.824 169.404 88.512C167.484 91.136 164.828 93.216 161.436 94.752C158.044 96.224 154.172 96.96 149.82 96.96ZM183.896 96V31.872H201.752V96H183.896ZM175.448 60V44.832H210.68V60H175.448ZM219.442 96V44.832H236.146L237.106 61.632L233.362 58.752C234.194 55.936 235.474 53.408 237.202 51.168C238.994 48.864 241.138 47.072 243.634 45.792C246.13 44.448 248.754 43.776 251.506 43.776C252.658 43.776 253.746 43.872 254.77 44.064C255.794 44.192 256.754 44.384 257.65 44.64L252.754 64.416C252.05 63.968 251.058 63.584 249.778 63.264C248.498 62.88 247.122 62.688 245.65 62.688C244.37 62.688 243.218 62.912 242.194 63.36C241.17 63.744 240.306 64.32 239.602 65.088C238.898 65.856 238.354 66.784 237.97 67.872C237.586 68.896 237.394 70.112 237.394 71.52V96H219.442ZM287.802 96.96C282.362 96.96 277.498 95.808 273.21 93.504C268.922 91.2 265.562 88.064 263.13 84.096C260.698 80.128 259.482 75.552 259.482 70.368C259.482 65.184 260.698 60.608 263.13 56.64C265.562 52.672 268.922 49.536 273.21 47.232C277.498 44.928 282.362 43.776 287.802 43.776C293.242 43.776 298.074 44.928 302.298 47.232C306.586 49.536 309.946 52.672 312.378 56.64C314.81 60.608 316.026 65.184 316.026 70.368C316.026 75.552 314.81 80.128 312.378 84.096C309.946 88.064 306.586 91.2 302.298 93.504C298.074 95.808 293.242 96.96 287.802 96.96ZM287.802 81.888C289.722 81.888 291.45 81.408 292.986 80.448C294.586 79.424 295.802 78.048 296.634 76.32C297.53 74.528 297.978 72.544 297.978 70.368C297.978 68.064 297.53 66.048 296.634 64.32C295.802 62.592 294.586 61.248 292.986 60.288C291.45 59.264 289.722 58.752 287.802 58.752C285.818 58.752 284.058 59.264 282.522 60.288C280.986 61.248 279.77 62.624 278.874 64.416C277.978 66.144 277.53 68.128 277.53 70.368C277.53 72.544 277.978 74.528 278.874 76.32C279.77 78.048 280.986 79.424 282.522 80.448C284.058 81.408 285.818 81.888 287.802 81.888Z" fill="white"/>
<path d="M329.448 118.08L341.736 89.088L341.928 96.96L317.64 44.832H337.608L346.152 65.184C346.856 66.784 347.464 68.384 347.976 69.984C348.552 71.52 348.968 72.992 349.224 74.4L347.208 75.936C347.464 75.104 347.848 73.952 348.36 72.48C348.872 71.008 349.448 69.312 350.088 67.392L357.864 44.832H377.928L355.752 96L346.824 118.08H329.448ZM402.689 96.864C398.465 96.864 394.657 95.744 391.265 93.504C387.937 91.2 385.281 88.064 383.297 84.096C381.377 80.064 380.417 75.488 380.417 70.368C380.417 65.12 381.377 60.512 383.297 56.544C385.217 52.576 387.873 49.472 391.265 47.232C394.657 44.928 398.561 43.776 402.977 43.776C405.345 43.776 407.521 44.096 409.505 44.736C411.489 45.376 413.217 46.304 414.689 47.52C416.161 48.736 417.441 50.112 418.529 51.648C419.617 53.184 420.513 54.848 421.217 56.64L417.569 56.448V44.832H435.137V96H417.185V83.52L421.121 83.712C420.545 85.568 419.681 87.296 418.529 88.896C417.441 90.496 416.097 91.904 414.497 93.12C412.897 94.272 411.105 95.2 409.121 95.904C407.201 96.544 405.057 96.864 402.689 96.864ZM407.777 82.176C409.825 82.176 411.585 81.728 413.057 80.832C414.529 79.872 415.649 78.496 416.417 76.704C417.249 74.912 417.665 72.8 417.665 70.368C417.665 67.872 417.249 65.728 416.417 63.936C415.649 62.144 414.529 60.8 413.057 59.904C411.585 58.944 409.825 58.464 407.777 58.464C405.729 58.464 403.969 58.944 402.497 59.904C401.089 60.8 400.001 62.144 399.233 63.936C398.465 65.728 398.081 67.872 398.081 70.368C398.081 72.8 398.465 74.912 399.233 76.704C400.001 78.496 401.089 79.872 402.497 80.832C403.969 81.728 405.729 82.176 407.777 82.176ZM454.807 97.056C451.927 97.056 449.687 96.256 448.087 94.656C446.551 93.056 445.783 90.784 445.783 87.84C445.783 85.152 446.615 82.944 448.279 81.216C449.943 79.488 452.119 78.624 454.807 78.624C457.623 78.624 459.831 79.424 461.431 81.024C463.031 82.624 463.831 84.896 463.831 87.84C463.831 90.528 462.999 92.736 461.335 94.464C459.671 96.192 457.495 97.056 454.807 97.056Z" fill="url(#paint1_linear_50_14)"/>
<defs>
<linearGradient id="paint0_linear_50_14" x1="49.7915" y1="40.2056" x2="49.7915" y2="127.64" gradientUnits="userSpaceOnUse">
<stop stop-color="#9200BE"/>
<stop offset="0.870192" stop-color="#FF5500"/>
</linearGradient>
<linearGradient id="paint1_linear_50_14" x1="125.628" y1="60" x2="468.628" y2="60" gradientUnits="userSpaceOnUse">
<stop offset="0.572115" stop-color="#FF5500"/>
<stop offset="1" stop-color="#9200BE"/>
</linearGradient>
</defs>
</svg>
